<svg xmlns="http://www.w3.org/2000/svg" xmlns:xlink="http://www.w3.org/1999/xlink" id="Layer_1" width="48" height="48" x="0" y="0" enable-background="new 0 0 48 48" version="1.1" viewBox="0 0 48 48" xml:space="preserve"><metadata><sfw xmlns="http://ns.adobe.com/SaveForWeb/1.0/"><slices/><sliceSourceBounds width="36" height="40.328" x="5.5" y="4.336" bottomLeftOrigin="true"/></sfw></metadata><path fill="#2E3849" d="M41,3.836H7c-0.549,0-1,0.45-1,1l0.002,29.055c0,0.549,0.398,1.211,0.885,1.469l16.227,8.611	c0.486,0.258,1.281,0.258,1.768,0l16.236-8.613C41.604,35.1,42,34.438,42,33.888V4.836C42,4.286,41.551,3.836,41,3.836z M36.788,24.205h-9.784v9.949h-5.966v-9.949h-9.826v-5.447h9.826V9.24h5.966v9.518h9.784V24.205z"/></svg>