<svg xmlns="http://www.w3.org/2000/svg" xmlns:xlink="http://www.w3.org/1999/xlink" id="Layer_1" width="48" height="48" x="0" y="0" enable-background="new 0 0 48 48" version="1.1" viewBox="0 0 48 48" xml:space="preserve"><metadata><sfw xmlns="http://ns.adobe.com/SaveForWeb/1.0/"><slices/><sliceSourceBounds width="42.9" height="42.899" x="374.596" y="284.493" bottomLeftOrigin="true"/></sfw></metadata><path fill="#D1D3D4" d="M24.546,44.666c-11.089,0-20.108-9.021-20.108-20.109c0-11.086,9.02-20.107,20.108-20.107	c11.088,0,20.108,9.02,20.108,20.107S35.634,44.666,24.546,44.666z"/><path fill="#FFF" d="M24.546,5.789c10.349,0,18.769,8.419,18.769,18.768c0,10.35-8.42,18.769-18.769,18.769	c-10.35,0-18.77-8.419-18.77-18.769C5.776,14.208,14.196,5.789,24.546,5.789 M24.546,3.107c-11.847,0-21.45,9.604-21.45,21.449	c0,11.849,9.604,21.45,21.45,21.45s21.45-9.602,21.45-21.45C45.996,12.712,36.393,3.107,24.546,3.107L24.546,3.107z"/><polygon id="check-mark-icon_1_" fill="#FFF" points="33.971 13.755 20.815 26.91 15.119 21.211 10.896 25.436 20.818 35.36 38.197 17.979"/></svg>