<svg xmlns="http://www.w3.org/2000/svg" xmlns:xlink="http://www.w3.org/1999/xlink" id="Layer_1" width="48" height="48" x="0" y="0" enable-background="new 0 0 48 48" version="1.1" viewBox="0 0 48 48" xml:space="preserve"><metadata><sfw xmlns="http://ns.adobe.com/SaveForWeb/1.0/"><slices/><sliceSourceBounds width="16383" height="42.9" x="-7796" y="285.05" bottomLeftOrigin="true"/><optimizationSettings><targetSettings fileFormat="GIFFormat" targetSettingsID="0"><GIFFormat autoReduce="false" ditherAlgorithm="diffusion" ditherPercent="100" includeCaption="false" interlaced="false" lossy="0" matteColor="#FFFFFF" noMatteColor="false" numColors="256" reductionAlgorithm="selective" rolloverMasterPalette="false" transparency="true" webShiftPercent="0"><colorTable isExact="false"/><lockedColors/><colorShiftEntries/></GIFFormat></targetSettings></optimizationSettings></sfw></metadata><path fill="#00AEEF" d="M24,44.109C12.913,44.109,3.891,35.087,3.891,24C3.891,12.914,12.913,3.892,24,3.892	c11.088,0,20.109,9.021,20.109,20.108S35.088,44.109,24,44.109z"/><path fill="#FFF" d="M24,5.231c10.349,0,18.769,8.42,18.769,18.769c0,10.348-8.42,18.769-18.769,18.769S5.231,34.348,5.231,24	C5.231,13.651,13.651,5.231,24,5.231 M24,2.55C12.152,2.55,2.55,12.154,2.55,24c0,11.847,9.603,21.45,21.45,21.45	S45.45,35.847,45.45,24C45.45,12.154,35.848,2.55,24,2.55L24,2.55z"/><polygon id="check-mark-icon_1_" fill="#FFF" points="33.423 13.197 20.271 26.353 14.574 20.652 10.351 24.879 20.271 34.804 37.652 17.42"/></svg>