<svg xmlns="http://www.w3.org/2000/svg" xmlns:xlink="http://www.w3.org/1999/xlink" id="Layer_1" width="48" height="48" x="0" y="0" enable-background="new 0 0 48 48" version="1.1" viewBox="0 0 48 48" xml:space="preserve"><metadata><sfw xmlns="http://ns.adobe.com/SaveForWeb/1.0/"><slices/><sliceSourceBounds width="27.302" height="28.665" x="9.85" y="10.167" bottomLeftOrigin="true"/></sfw></metadata><path fill="#231F20" d="M33.172,29.395c-1.352,0-2.562,0.603-3.385,1.549L19.134,25.21c0.108-0.385,0.172-0.789,0.172-1.212	c0-0.418-0.063-0.824-0.172-1.206l10.653-5.735c0.823,0.949,2.033,1.553,3.385,1.553c2.47,0,4.479-2.006,4.479-4.466	c0-2.467-2.009-4.476-4.479-4.476c-2.473,0-4.477,2.009-4.477,4.476c0,0.42,0.061,0.825,0.17,1.21l-10.661,5.724	c-0.82-0.943-2.029-1.541-3.381-1.541c-2.466,0-4.474,1.993-4.474,4.461c0,2.475,2.008,4.464,4.475,4.464	c1.352,0,2.561-0.599,3.385-1.54l10.658,5.727c-0.11,0.387-0.17,0.787-0.17,1.207c0,2.471,2.004,4.478,4.476,4.478	c2.47,0,4.479-2.007,4.479-4.478C37.65,31.398,35.642,29.395,33.172,29.395z"/></svg>