<svg xmlns="http://www.w3.org/2000/svg" xmlns:xlink="http://www.w3.org/1999/xlink" id="Layer_1" width="48" height="48" x="0" y="0" enable-background="new 0 0 48 48" version="1.1" viewBox="0 0 48 48" xml:space="preserve"><metadata><sfw xmlns="http://ns.adobe.com/SaveForWeb/1.0/"><slices/><sliceSourceBounds width="23.679" height="35.331" x="11.34" y="6.834" bottomLeftOrigin="true"/></sfw></metadata><path id="microphone-3-icon_1_" fill="#6D6E71" d="M17.846,22.633V12.168	c0-3.221,2.611-5.834,5.833-5.834s5.833,2.613,5.833,5.834v10.465c0,3.223-2.611,5.833-5.833,5.833S17.846,25.855,17.846,22.633z M32.088,19.631v3.002c0,4.637-3.771,8.408-8.409,8.408c-4.636,0-8.408-3.771-8.408-8.408v-3.002H11.84v3.002	c0,5.873,4.295,10.759,9.908,11.681v3.918h-4.933v3.434h13.728v-3.434h-4.934v-3.918c5.614-0.924,9.91-5.809,9.91-11.682V19.63	L32.088,19.631L32.088,19.631z" enable-background="new" opacity=".8"/></svg>