<svg xmlns="http://www.w3.org/2000/svg" xmlns:xlink="http://www.w3.org/1999/xlink" id="Layer_1" width="60" height="60" x="0" y="0" enable-background="new 0 0 60 60" version="1.1" viewBox="0 0 60 60" xml:space="preserve"><metadata><sfw xmlns="http://ns.adobe.com/SaveForWeb/1.0/"><slices/><sliceSourceBounds width="59.772" height="49.237" x="365.728" y="282.406" bottomLeftOrigin="true"/></sfw></metadata><path id="picture-multi-2-icon" fill="#2E3849" d="M46.979,21.111L42.025,4.857L0.228,17.597l9.616,31.55l6.46-1.796v6.743H60	V21.111H46.979z M12.666,43.852L5.523,20.417l33.679-10.266l3.342,10.959H16.305v21.804L12.666,43.852z M55.758,49.853h-35.21	V25.354h35.21V49.853z M25.584,31.938c0-1.787,1.451-3.238,3.238-3.238c1.789,0,3.237,1.45,3.237,3.238s-1.448,3.238-3.237,3.238	C27.035,35.176,25.584,33.727,25.584,31.938z M42.008,32.042l-5.366,7.626l-2.918-3.007l-8.23,9.353l25.729-0.001L42.008,32.042z"/></svg>