<svg xmlns="http://www.w3.org/2000/svg" xmlns:xlink="http://www.w3.org/1999/xlink" id="Layer_1" width="48" height="48" x="0" y="0" enable-background="new 0 0 48 48" version="1.1" viewBox="0 0 48 48" xml:space="preserve"><metadata><sfw xmlns="http://ns.adobe.com/SaveForWeb/1.0/"><slices/><sliceSourceBounds width="39.293" height="48.063" x="375.854" y="282.621" bottomLeftOrigin="true"/><optimizationSettings><targetSettings fileFormat="GIFFormat" targetSettingsID="0"><GIFFormat autoReduce="false" ditherAlgorithm="diffusion" ditherPercent="100" includeCaption="false" interlaced="false" lossy="0" matteColor="#FFFFFF" noMatteColor="false" numColors="256" reductionAlgorithm="selective" rolloverMasterPalette="false" transparency="true" webShiftPercent="0"><colorTable isExact="false"/><lockedColors/><colorShiftEntries/></GIFFormat></targetSettings></optimizationSettings></sfw></metadata><polygon fill="#231F20" points="41.416 11.805 41.416 45.648 6.584 45.648 6.584 2.048 31.838 2.048 31.838 11.805 43.646 11.805 31.847 -.169 31.847 -.184 4.354 -.184 4.354 47.879 43.646 47.879 43.646 11.805"/><path id="microphone-3-icon_1_" fill="#231F20" d="M20.037,25.088v-7.112c0-2.188,1.772-3.963,3.963-3.963	c2.191,0,3.965,1.773,3.965,3.963v7.112c0,2.186-1.772,3.963-3.965,3.963C21.812,29.049,20.037,27.273,20.037,25.088z M29.712,23.046v2.038c0,3.148-2.563,5.711-5.712,5.711c-3.147,0-5.71-2.562-5.71-5.711v-2.038h-2.332v2.038	c0,3.99,2.917,7.311,6.731,7.938v2.662h-3.352v2.33h9.325v-2.33h-3.352v-2.662c3.816-0.627,6.731-3.947,6.731-7.938v-2.038H29.712z"/></svg>